{"title":"Braveheart*1995*[BluRay][1080p][ENG, POL]","uid":5874148,"size":22500545410,"categoryP":"video","categoryS":"hd___movies","magnet":"?xt=urn:btih:2daf920aa7a7b2825c399b48f9ffe967fca1895f&amp;dn=Braveheart%2A1995%2A%5BBluRay%5D%5B1080p%5D%5BENG%2C+POL%5D&amp;tr=udp%3A%2F%2Ftracker.openbittorrent.com%3A80&amp;tr=udp%3A%2F%2Fopen.demonii.com%3A1337&amp;tr=udp%3A%2F%2Ftracker.coppersurfer.tk%3A6969&amp;tr=udp%3A%2F%2Fexodus.desync.com%3A6969","seeders":0,"leechers":3,"uploader":"albedo040","files":1,"time":1286545353,"description":"Braveheart*1995*[BluRay][1080p][ENG, POL]\n\nGeneral information:\nCountry: USA\nRelease: 18 May 1995 (Seattle International Film Festival)\nGenre: Action, Biography, Drama, History, War \nDirector: Mel Gibson\nScreenplay: Randall Wallace\nOriginal Music: James Horner\nCinematography by: John Toll\nDuration: 2h 57mn\nLanguage: English, Polish\nSubtitles: English, Polish\nRating: 8.5/10 - 57842 votes \n\nCast:\nJames Robinson  ...  Young William Wallace  \nSean Lawlor  ...  Malcolm Wallace \nMel Gibson ...  William Wallace  \nSandy Nelson  ...  John Wallace  \nJames Cosmo  ...  Campbell  \nSean McGinley  ...  MacClannough  \nAlan Tall  ...  Elder Stewart  \nAndrew Weir  ...  Young Hamish  \nGerda Stevenson  ...  Mother MacClannough  \nRalph Riach  ...  Priest No. 1  \nMhairi Calvey  ...  Young Murron  \nBrian Cox  ...  Argyle Wallace  \nPatrick McGoohan  ...  Longshanks - King Edward I  \nPeter Hanly  ...  Prince Edward  \nSophie Marceau  ...  Princess Isabelle  \nStephen Billington  ...  Phillip  \n\nPlot:\nWilliam Wallace, a commoner, unites the 13th Century Scots in their battle to overthrow English rule.\n\nSpecifications:\nGeneral\nFormat                           : Matroska\nOverall bit rate                 : 16.9 Mbps\n\nVideo\nFormat                           : AVC\nFormat/Info                      : Advanced Video Codec\nFormat profile                   : &lt;a class=&quot;__cf_email__&quot; href=&quot;/cdn-cgi/l/email-protection&quot; data-cfemail=&quot;3e765759567e720a100f&quot;&gt;[email&amp;#160;protected]&lt;/a&gt;&lt;script cf-hash='f9e31' type=&quot;text/javascript&quot;&gt;\n/* &lt;![CDATA[ */!function(){try{var t=&quot;currentScript&quot;in document?document.currentScript:function(){for(var t=document.getElementsByTagName(&quot;script&quot;),e=t.length;e--;)if(t[e].getAttribute(&quot;cf-hash&quot;))return t[e]}();if(t&amp;&amp;t.previousSibling){var e,r,n,i,c=t.previousSibling,a=c.getAttribute(&quot;data-cfemail&quot;);if(a){for(e=&quot;&quot;,r=parseInt(a.substr(0,2),16),n=2;a.length-n;n+=2)i=parseInt(a.substr(n,2),16)^r,e+=String.fromCharCode(i);e=document.createTextNode(e),c.parentNode.replaceChild(e,c)}}}catch(u){}}();/* ]]&gt; */&lt;/script&gt;\nFormat settings, CABAC           : Yes\nFormat settings, ReFrames        : 5 frames\nMuxing mode                      : Container profile=&lt;a class=&quot;__cf_email__&quot; href=&quot;/cdn-cgi/l/email-protection&quot; data-cfemail=&quot;bbeed5d0d5d4ccd5fb8f958a&quot;&gt;[email&amp;#160;protected]&lt;/a&gt;&lt;script cf-hash='f9e31' type=&quot;text/javascript&quot;&gt;\n/* &lt;![CDATA[ */!function(){try{var t=&quot;currentScript&quot;in document?document.currentScript:function(){for(var t=document.getElementsByTagName(&quot;script&quot;),e=t.length;e--;)if(t[e].getAttribute(&quot;cf-hash&quot;))return t[e]}();if(t&amp;&amp;t.previousSibling){var e,r,n,i,c=t.previousSibling,a=c.getAttribute(&quot;data-cfemail&quot;);if(a){for(e=&quot;&quot;,r=parseInt(a.substr(0,2),16),n=2;a.length-n;n+=2)i=parseInt(a.substr(n,2),16)^r,e+=String.fromCharCode(i);e=document.createTextNode(e),c.parentNode.replaceChild(e,c)}}}catch(u){}}();/* ]]&gt; */&lt;/script&gt;\nCodec ID                         : V_MPEG4/ISO/AVC\nBit rate                         : 15.0 Mbps\nWidth                            : 1 920 pixels\nHeight                           : 818 pixels\nDisplay aspect ratio             : 2.35:1\nFrame rate                       : 23.976 fps\n\nAudio 1\nFormat                           : DTS\nFormat/Info                      : Digital Theater Systems\nCodec ID                         : A_DTS\nBit rate mode                    : Constant\nBit rate                         : 1 510 Kbps\nChannel(s)                       : 6 channels\nChannel positions                : Front: L C R, Side: L R, LFE\nSampling rate                    : 48.0 KHz\nBit depth                        : 24 bits\nStream size                      : 1.87 GiB (9%)\nTitle                            : English_A\n\nAudio 2\nFormat                           : AC-3\nFormat/Info                      : Audio Coding 3\nMode extension                   : CM (complete main)\nCodec ID                         : A_AC3\nBit rate mode                    : Constant\nBit rate                         : 384 Kbps\nChannel(s)                       : 6 channels\nChannel positions                : Front: L C R, Side: L R, LFE\nSampling rate                    : 48.0 KHz\nStream size                      : 488 MiB (2%)\nLanguage                         : Polish\n\nText 1\nFormat                           : UTF-8\nCodec ID                         : S_TEXT/UTF8\nCodec ID/Info                    : UTF-8 Plain Text\nTitle                            : Englis_SUB\n\nText 2\nFormat                           : UTF-8\nCodec ID                         : S_TEXT/UTF8\nCodec ID/Info                    : UTF-8 Plain Text\nTitle                            : Polish_SUB\n","torrent":{"xt":"urn:btih:2daf920aa7a7b2825c399b48f9ffe967fca1895f","amp;dn":"Braveheart%2A1995%2A%5BBluRay%5D%5B1080p%5D%5BENG%2C+POL%5D","amp;tr":["udp%3A%2F%2Ftracker.openbittorrent.com%3A80","udp%3A%2F%2Fopen.demonii.com%3A1337","udp%3A%2F%2Ftracker.coppersurfer.tk%3A6969","udp%3A%2F%2Fexodus.desync.com%3A6969"],"infoHash":"2daf920aa7a7b2825c399b48f9ffe967fca1895f","infoHashBuffer":{"type":"Buffer","data":[45,175,146,10,167,167,178,130,92,57,155,72,249,255,233,103,252,161,137,95]},"announce":[],"urlList":[]}}